<?xml version="1.0" encoding="utf-8"?>
<!-- Svg Vector Icons : http://www.onlinewebfonts.com/icon -->
<!DOCTYPE svg PUBLIC "-//W3C//DTD SVG 1.1//EN" "http://www.w3.org/Graphics/SVG/1.1/DTD/svg11.dtd">
<svg fill="none" version="1.1" xmlns="http://www.w3.org/2000/svg" xmlns:xlink="http://www.w3.org/1999/xlink" x="0px" y="0px" viewBox="0 0 1000 1000" enable-background="new 0 0 1000 1000" xml:space="preserve">
<metadata> Svg Vector Icons : http://www.onlinewebfonts.com/icon </metadata>
<g><g transform="translate(0.000000,511.000000) scale(0.100000,-0.100000)"><path d="M4566.4,4989.9c-917.4-83-1785.3-421.1-2544.5-988.5c-249.1-187.8-725.6-664.3-913.4-913.4C-38.2,1555.8-220.1-413.4,630-2099.9c622.8-1239.6,1761.6-2164.9,3106-2526.7c943.1-253.1,1975.1-211.6,2912.2,118.6c294.6,104.8,800.7,359.8,1065.6,535.8c557.5,375.6,1002.4,820.5,1374.1,1378c172,257,427,765.1,529.9,1055.8c377.6,1073.5,375.6,2220.3-2,3297.8c-37.6,108.7-138.4,340.1-225.4,514C8502.7,4086.4,6571.1,5173.8,4566.4,4989.9z M5418.5,4438.3c320.3-31.6,614.9-94.9,935.2-199.7c1642.9-537.8,2807.4-1988.9,2977.5-3712.9C9457.6-755.5,8993-2046.5,8075.7-2965.8c-1314.7-1312.8-3311.6-1646.9-4980.2-832.3C1598.8-3068.6,651.8-1552.2,651.8,110.5c0,980.6,348,1959.3,970.7,2736.3c282.7,351.9,737.4,749.3,1125,982.6C3552.1,4313.8,4497.2,4529.3,5418.5,4438.3z"/><path d="M4764.1,2370.3c-314.4-47.4-488.3-122.6-697.9-294.6c-322.3-266.9-506.1-654.4-601-1265.3c-25.7-166.1-33.6-344-33.6-741.4c0-577.3,17.8-769.1,108.7-1126.9c176-680.1,539.7-1032,1164.5-1128.9c179.9-27.7,535.8-11.9,701.8,31.6c480.4,124.6,852.1,535.8,1008.3,1117c94.9,355.9,116.7,577.3,116.7,1146.7c2,577.3-17.8,767.1-108.7,1126.9c-112.7,438.9-308.4,743.4-597.1,931.2c-130.5,85-355.9,164.1-547.7,195.7C5155.5,2380.2,4868.9,2386.1,4764.1,2370.3z M5244.5,1878c263-55.4,433-241.2,543.7-595.1C5898.9,927,5928.6,672,5936.5,39.3c4-531.8-25.7-784.9-136.4-1101.2c-110.7-316.3-231.3-466.6-462.6-577.3c-120.6-57.3-142.4-61.3-346-61.3c-179.9,2-237.2,9.9-334.1,47.5c-132.5,53.4-286.7,185.8-357.9,308.4c-65.2,110.7-142.4,375.6-191.8,642.5c-77.1,421.1-57.3,1492.7,35.6,1856.5c83,328.2,328.2,636.6,563.5,711.7C4859,1913.6,5056.7,1917.6,5244.5,1878z"/></g></g>
</svg>